<svg xmlns="http://www.w3.org/2000/svg" width="324" height="72" viewBox="0 0 324 72" version="1.1"><path d="" stroke="none" fill="#18242c" fill-rule="evenodd"/><path d="M 85.640 34.410 C 75.938 53.394, 68 69.409, 68 70 C 68 70.710, 71.143 70.977, 77.250 70.788 L 86.500 70.500 95.968 51.549 L 105.436 32.599 114.684 51.799 L 123.933 71 133.466 71 C 140.882 71, 143 70.695, 143 69.627 C 143 68.872, 135.183 53.009, 125.628 34.377 C 110.384 4.649, 107.951 0.463, 105.768 0.197 C 103.438 -0.087, 102.155 2.094, 85.640 34.410 M 0.455 2.257 C 0.190 2.949, 0.091 18.586, 0.236 37.007 L 0.500 70.500 9.250 70.789 L 18 71.078 18 36.039 L 18 1 9.469 1 C 3.540 1, 0.790 1.384, 0.455 2.257 M 41.807 2.750 C 40.980 3.712, 35.455 11.393, 29.529 19.818 C 21.109 31.789, 18.946 35.527, 19.628 36.924 C 20.107 37.907, 25.631 45.977, 31.902 54.856 L 43.303 71 53.652 71 C 60.504 71, 64 70.629, 64 69.901 C 64 69.297, 58.600 61.411, 52 52.377 C 45.400 43.344, 40 35.506, 40 34.961 C 40 34.415, 45.175 27.075, 51.500 18.648 C 57.825 10.222, 63 2.804, 63 2.164 C 63 1.358, 59.975 1, 53.155 1 C 45.018 1, 43.049 1.304, 41.807 2.750 M 154.455 2.257 C 154.190 2.949, 154.091 18.586, 154.236 37.007 L 154.500 70.500 163.250 70.789 L 172 71.078 172 36.039 L 172 1 163.469 1 C 157.540 1, 154.790 1.384, 154.455 2.257 M 188.607 2.582 C 188.273 3.452, 188 6.340, 188 9 C 188 17.268, 187.511 17, 202.607 17 C 209.973 17, 216 17.258, 216 17.573 C 216 17.888, 209.475 29.330, 201.500 43 C 193.525 56.670, 187 68.569, 187 69.443 C 187 70.863, 190.042 71.003, 215.750 70.765 L 244.500 70.500 244.500 63 L 244.500 55.500 230.250 55.223 C 222.412 55.070, 216 54.732, 216 54.472 C 216 54.211, 222.525 42.795, 230.500 29.102 C 238.475 15.409, 245 3.484, 245 2.603 C 245 1.171, 242.030 1, 217.107 1 C 192.595 1, 189.140 1.192, 188.607 2.582 M 260.006 24.711 C 260.009 37.816, 260.470 50.152, 261.033 52.177 C 262.942 59.051, 267.996 65.198, 274.434 68.478 C 279.986 71.305, 281.082 71.499, 291.434 71.486 C 301.048 71.473, 303.132 71.160, 307.313 69.096 C 313.676 65.955, 317.769 61.716, 320.917 55.006 C 323.470 49.565, 323.500 49.218, 323.500 25.500 L 323.500 1.500 315.086 1.207 C 309.029 0.996, 306.441 1.276, 305.851 2.207 C 305.400 2.918, 305.024 13.221, 305.015 25.102 C 305.001 45.930, 304.918 46.826, 302.715 50.102 C 297.649 57.637, 285.580 57.497, 280.158 49.842 C 278.770 47.881, 278.419 43.761, 278 24.500 L 277.500 1.500 268.750 1.211 L 260 0.922 260.006 24.711" stroke="none" fill="#14242c" fill-rule="evenodd"/></svg>